<?xml version="1.0" encoding="utf-8"?>
<!-- Generator: Adobe Illustrator 18.1.1, SVG Export Plug-In . SVG Version: 6.00 Build 0)  -->
<svg version="1.1" id="Логотип" xmlns="http://www.w3.org/2000/svg" xmlns:xlink="http://www.w3.org/1999/xlink" x="0px"
	 y="0px" viewBox="0 0 260 100" enable-background="new 0 0 260 120" xml:space="preserve">
<path fill="#ffffff" d="M98.9,0.9c-7.4-1.4-53.4-4.3-56.3,20.3h0.3C45.1,14.6,51.7,9.8,62,6.9s35.1-1.4,35.1-1.4l-2.6,12.9h2.6
	L100.9,6c0,0,14.6,2,23.4,15.7C117.4,8.9,110.3,3.2,98.9,0.9z"/>
<g>
	<path fill="#ffffff" d="M1.7,31.8c1.4-2.6,10.9-6.9,28.6-8.6c80.6-10.9,136.6,5.4,144.3,12c4.9,3.4,12.3,11.4,12.3,11.4
		s-8.6-10.3-13.4-13.4c-3.4-2.9-16.9-8-38.3-11.4c-43.7-9.1-104.9-0.3-104.9-0.3C0.9,24,0,31.5,0,33.2c0,1.7,4.6,5.1,4.6,5.1
		S0.3,34.3,1.7,31.8z"/>
	<path fill="#ffffff" d="M181.4,58c0.9-3.7,1.4-8.9,0.9-9.1c0,0-96.3-18-117.1-19.4c-65.1-3.7-62.6,4-62.6,4s10,18.9,22.9,28.9
		c-8.6-12.6-2-16.3-2-16.3s24.6-3.1,80.9,16C126,57.8,152.3,55.5,181.4,58z"/>
	<path fill="#ffffff" d="M24.6,47.2c0,0,3.1,22,31.4,29.7c0.3,0,0.3,0,0.6-0.3C38.3,68.6,24.6,47.2,24.6,47.2z"/>
	<path fill="#ffffff" d="M56.6,76.6c-0.3,0-0.3,0.3-0.6,0.3c0.9,0.3,1.7,0.6,2.6,0.6C58,77.2,57.1,76.9,56.6,76.6z"/>
</g>
<path fill="#ffffff" d="M42,90.3c0,0,74.9-46.6,181.7-22.3C223.7,68.3,101.4,61.5,42,90.3z"/>
</svg>
