<?xml version="1.0" encoding="utf-8"?>
<!-- Generator: Adobe Illustrator 26.2.1, SVG Export Plug-In . SVG Version: 6.00 Build 0)  -->
<svg version="1.1" id="Слой_1" xmlns="http://www.w3.org/2000/svg" xmlns:xlink="http://www.w3.org/1999/xlink" x="0px" y="0px"
	 viewBox="0 0 45 12" style="enable-background:new 0 0 45 12;" xml:space="preserve">
<style type="text/css">
	.st0{fill:#00ABCC;}
	.st1{fill:#FCB813;}
</style>
<g>
	<g>
		<path class="st0" d="M30.14,8.68c-7.31,0-8.74-3.89-14.87-3.89c-6.13,0-7.56,3.89-14.87,3.89V3.96c5.89,0,7.38-3.89,14.87-3.89
			c7.5,0,8.95,3.89,14.87,3.89c5.89,0,7.38-3.89,14.87-3.89v4.72C38.87,4.79,37.45,8.68,30.14,8.68z"/>
	</g>
	<path class="st1" d="M37.05-67.62l0.58-3.01l-9.4,3.25l7.52,6.51l0.55-2.84c4.07,0.85,6.78,2.04,6.78,3.26
		c0,2.2-8.82,4.29-18.61,4.52v-31.42c3.35-0.1,7.07-0.5,10.34-1.09c0.11-0.02,0.22-0.04,0.33-0.06l-0.65-3.46
		c-3.14,0.59-6.76,0.98-10.01,1.09v-2.87c2.68-0.77,4.64-3.23,4.64-6.15c0-3.53-2.87-6.4-6.4-6.4c-3.53,0-6.4,2.87-6.4,6.4
		c0,2.92,1.97,5.38,4.64,6.15v2.87c-3.25-0.11-6.87-0.5-10.01-1.09l-0.65,3.46c0.11,0.02,0.22,0.04,0.33,0.06
		c3.26,0.6,6.99,0.99,10.34,1.09v31.42c-9.79-0.23-18.6-2.32-18.6-4.52c0-1.22,2.71-2.41,6.79-3.26l0.54,2.84l7.52-6.51l-9.4-3.26
		l0.58,3.01c-5.51,1.27-10.24,3.48-10.24,7.18c0,7.17,17.73,8.74,24.56,8.74s24.56-1.57,24.56-8.74
		C47.27-64.15,42.55-66.35,37.05-67.62z M19.82-99.9c0-1.59,1.29-2.88,2.88-2.88s2.88,1.29,2.88,2.88c0,1.59-1.29,2.88-2.88,2.88
		S19.82-98.31,19.82-99.9z"/>
	<g>
		<g>
			<path d="M7.17-15.75c-1.24,0-2.45,0.48-3.06,1.47c0.26-2.72,3.05-2.29,5.61-3.17l-0.1-1.78C6.01-18.31,2.3-18.47,2.3-12.7
				c0,3.72,1.77,5.23,4.17,5.23c2.63,0,4.19-1.8,4.19-4.36C10.65-14.57,9.03-15.75,7.17-15.75z M6.54-9.27
				c-1.62,0-2.21-1.43-2.21-2.83c0-0.26,0.01-0.52,0.07-0.78c0.62-0.78,1.45-1.17,2.24-1.17c1.18,0,2.1,0.74,2.1,2.48
				C8.73-10.22,7.79-9.27,6.54-9.27z"/>
			<polygon points="-4.8,-16.15 -0.2,-7.69 2.05,-7.69 -2.55,-16.15 			"/>
			<path d="M10.73-33.25H2.16c-3.12,0.04-4.45,1.34-4.45,3.58c0,2.09,1.15,3.32,3.2,3.32v-1.77c-0.99-0.03-1.36-0.74-1.36-1.55
				c0-1.08,0.6-1.77,2.09-1.77h0.81v9.48h2.18v-9.5h3.95v9.5h3.62v-1.81h-1.48V-33.25z"/>
			<path d="M38.89-22.24v-1.72c-0.62,0.25-1.69,0.43-2.65,0.43c-1.46,0-2.69-0.36-2.74-1.99h5.68c0.02-0.39,0.07-0.8,0.07-1.18
				c0-1.99-0.85-3.92-3.64-3.92c-2.76,0-4.07,1.91-4.07,4.47c0,2.73,1.41,4.42,4.34,4.42C36.79-21.74,38.02-21.87,38.89-22.24z
				 M35.51-29.02c0.88,0,1.77,0.51,1.78,1.83h-3.76C33.55-28.38,34.5-29.02,35.51-29.02z"/>
			<polygon points="32.15,-14.47 33.79,-14.47 33.79,-9.45 32.15,-9.45 32.15,-7.71 37.58,-7.71 37.58,-9.45 35.84,-9.45 
				35.84,-14.47 38.17,-14.47 38.17,-12.87 40.02,-12.87 40.02,-16.19 32.15,-16.19 			"/>
			<polygon points="54.45,-30.41 49.85,-21.96 52.1,-21.96 56.7,-30.41 			"/>
			<path d="M17.86-12.7c0,1.85-0.6,2.85-1.96,2.85c-0.99,0-1.44-0.45-1.44-1.62v-4.72H12.4v5.31c0,0.96,0.32,1.62,0.77,2.06
				L12.08-5.4c1.08,0.92,2.36,1.39,3.8,1.39c2.66,0,3.94-1.33,4.03-4.3v-7.88h-2.06V-12.7z M15.88-5.69c-0.66,0-1.21-0.08-1.79-0.55
				l0.56-1.88c0.16,0.03,0.32,0.04,0.46,0.04c0.92,0,2.22-0.45,2.7-1.28C17.83-7.13,17.72-5.69,15.88-5.69z"/>
			<path d="M29.32-23.56h-2.05v-5.17h1.35v1.72h1.73v-3.42h-8.1v3.42h1.72v-1.72h1.34v5.17h-7.37c-1.46,0-2.69-0.34-2.73-1.98h5.67
				c0.03-0.38,0.07-0.8,0.07-1.18c0-1.99-0.84-3.91-3.64-3.91c-2.76,0-4.08,1.89-4.08,4.46c0,2.73,1.41,4.21,4.34,4.21h11.75V-23.56
				z M17.22-29.02c0.88,0,1.77,0.49,1.79,1.81h-3.76C15.26-28.39,16.22-29.02,17.22-29.02z"/>
			<path d="M27.68-16.38c-1.07,0-2.18,0.4-2.89,1.21l-0.54-1.02h-2.62v1.76h1.51v8.59h-1.51v1.55h5.11v-1.55h-1.55V-7.9
				c0.61,0.28,1.36,0.43,2.06,0.43c2.22,0,3.86-1.54,3.86-4.64C31.1-15.09,29.65-16.38,27.68-16.38z M26.91-9.24
				c-0.56,0-1.19-0.15-1.73-0.41v-3.6c0.19-0.81,1.09-1.32,1.98-1.32c1.32,0,1.88,0.97,1.95,2.24C29.11-10.47,28.49-9.24,26.91-9.24
				z"/>
			<path d="M46.29-30.63c-1.07,0-2.18,0.4-2.9,1.21l-0.54-1.02h-2.62v1.74h1.51v8.61h-1.51v1.54h5.11v-1.54h-1.55v-2.06
				c0.59,0.27,1.36,0.43,2.06,0.43c2.22,0,3.86-1.55,3.86-4.64C49.7-29.34,48.25-30.63,46.29-30.63z M45.52-23.49
				c-0.56,0-1.19-0.15-1.73-0.41v-3.6c0.19-0.81,1.08-1.32,1.98-1.32c1.32,0,1.88,0.97,1.95,2.24
				C47.71-24.71,47.1-23.49,45.52-23.49z"/>
			<path d="M12.75-36.19c1.03,0,2.22-0.37,2.94-1.21c0.19,0.56,0.66,1.08,1.82,1.08h5.57h0.01v-3.36h3.2v3.36h3.44v-1.76h-1.4v-6.73
				h-2.05v3.4h-3.2v-3.4h-3.51v1.74h1.46v5.17h-3.53v-4.16c0-1.99-1.03-2.96-3.22-2.96c-1.32,0-2.72,0.18-3.58,0.48v1.91
				c0.45-0.18,1.82-0.48,2.98-0.48c0.95,0,1.8,0.19,1.8,1.1v0.55c-1.1-0.06-1.33-0.1-1.74-0.1c-2.41,0-3.8,0.82-3.8,2.76
				C9.93-36.94,11.14-36.19,12.75-36.19z M14-40.05c0.55,0,1.2,0.07,1.48,0.11v0.97c-0.4,0.65-1.37,1.14-2.4,1.14
				c-0.65,0-1.17-0.26-1.17-1.06C11.91-39.89,12.89-40.05,14-40.05z"/>
			<path d="M5.52-36.07c1.15,0,2.54-0.18,3.32-0.69v-1.89c-0.88,0.36-1.83,0.59-2.99,0.59c-1.9,0-3.35-1.04-3.35-3.79
				c0-2.85,1.36-4.04,3.31-4.04c0.33,0,0.67,0.04,1.02,0.11v2.29h1.87v-3.86c-0.74-0.29-1.77-0.48-2.71-0.48
				c-2.44,0-5.72,0.93-5.72,5.97C0.26-37.48,2.76-36.07,5.52-36.07z"/>
			<path d="M31.88-36.31h2.04v-3.47h0.95l1.51,2.4c0.55,0.9,1.36,1.11,2.24,1.11c0.38,0,0.41-0.01,0.79-0.05v-1.74h-0.27
				c-0.51,0-0.88-0.1-1.22-0.63l-1.41-2.25l2.54-3.84h-2.21l-2.22,3.49h-0.69v-3.49h-3.5v1.74h1.46V-36.31z"/>
			<rect x="49.34" y="-41.29" width="4.43" height="1.89"/>
			<polygon points="41.79,-43.09 43.13,-43.09 43.13,-38.07 41.09,-38.07 41.09,-36.31 47.14,-36.31 47.14,-38.07 45.09,-38.07 
				45.09,-43.09 46.44,-43.09 46.44,-41.38 48.16,-41.38 48.16,-44.79 40.06,-44.79 40.06,-41.38 41.79,-41.38 			"/>
		</g>
	</g>
</g>
</svg>
